<svg xmlns="http://www.w3.org/2000/svg" enable-background="new 0 0 256 256" viewBox="0 0 256 256" id="taj-mahal">
  <path d="M164.4 193.6h3.3 6.7 3.3c.6 0 1-.5 1-1 0-11.5-1-14.7-6.9-20.9-.2-.2-.5-.3-.7-.3 0 0 0 0 0 0-.3 0-.6.1-.7.3-5.9 6.3-6.9 9.5-6.9 20.9C163.4 193.2 163.8 193.6 164.4 193.6zM168.7 191.6v-7.5c0-1.4 1-2.4 2.3-2.4 1.3 0 2.4 1.1 2.4 2.4v7.5H168.7zM171 173.9c4.6 5.1 5.5 7.9 5.5 17.6h-1.2v-7.5c0-2.5-1.9-4.5-4.4-4.5-2.4 0-4.3 2-4.3 4.5v7.5h-1.2C165.5 181.9 166.3 179.1 171 173.9zM196.9 171.4C196.9 171.4 196.9 171.4 196.9 171.4c-.3 0-.6.1-.8.3-5.9 6.3-6.9 9.5-6.9 20.9 0 .6.5 1 1 1h3.3 6.7 3.3c.6 0 1-.5 1-1 0-11.5-1-14.7-6.9-20.9C197.5 171.5 197.2 171.4 196.9 171.4zM194.5 191.6v-7.5c0-1.4 1-2.4 2.4-2.4 1.3 0 2.3 1.1 2.3 2.4v7.5H194.5zM201.3 191.6v-7.5c0-2.5-2-4.5-4.3-4.5-2.5 0-4.4 2-4.4 4.5v7.5h-1.2c.1-9.6.9-12.4 5.6-17.6 4.6 5.1 5.5 7.9 5.5 17.6H201.3zM78.4 193.6h3.3 6.7 3.3c.6 0 1-.5 1-1 0-11.4-1-14.5-6.9-20.9-.2-.2-.5-.3-.7-.3-.3-.1-.6.1-.7.3-5.8 6.2-6.9 9.3-6.9 20.9C77.4 193.2 77.8 193.6 78.4 193.6zM82.7 191.6v-7.5c0-1.4 1-2.4 2.4-2.4 1.3 0 2.3 1.1 2.3 2.4v7.5H82.7zM85 173.9c4.7 5.2 5.6 8 5.6 17.6h-1.2v-7.5c0-2.5-2-4.5-4.3-4.5-2.5 0-4.4 2-4.4 4.5v7.5h-1.2C79.5 181.8 80.3 179 85 173.9zM52.5 193.6h3.3 6.7 3.3c.6 0 1-.5 1-1 0-11.4-1-14.5-6.9-20.9-.2-.2-.5-.3-.7-.3 0 0 0 0 0 0-.3 0-.6.1-.7.3-5.8 6.2-6.9 9.3-6.9 20.9C51.5 193.2 51.9 193.6 52.5 193.6zM56.8 191.6v-7.5c0-1.4 1-2.4 2.3-2.4 1.3 0 2.4 1.1 2.4 2.4v7.5H56.8zM59.1 173.9c4.7 5.2 5.6 8 5.6 17.6h-1.2v-7.5c0-2.5-1.9-4.5-4.4-4.5-2.4 0-4.3 2-4.3 4.5v7.5h-1.2C53.6 181.8 54.4 179 59.1 173.9z"></path>
  <path d="M249,235.2h-4.1v-14.5c0-0.6-0.5-1-1-1h-2.8v-30.4v-31.5v-30.4h0.6c0.6,0,1-0.5,1-1v-8.2c0-4.4-0.7-5.8-4.1-8.2v-8.4
		c0-0.6-0.5-1-1-1s-1,0.5-1,1v8.3c-3.5,2.3-4.2,3.8-4.2,8.2v8.2c0,0.6,0.5,1,1,1h0.6v30.4v31.5v30.4h-2.8h-6.6v-25.7v-26.8v-25.7
		h0.4c0.6,0,1-0.5,1-1v-7c0-3.8-0.6-5.1-3.5-7v-6.6c0-0.6-0.5-1-1-1c-0.6,0-1,0.5-1,1v6.5c-3,2-3.6,3.3-3.6,7.1v7c0,0.6,0.5,1,1,1
		h0.4v25.7v26.8v25.7h-7.4v-60.4v-8.6c0-0.6-0.5-1-1-1c-0.6,0-1,0.5-1,1v7.6H185v-7.6c0-0.6-0.5-1-1-1c-0.6,0-1,0.5-1,1v7.6h-4.3
		v-7.3c0,0,0,0,0,0c0-6.9-1.1-9-6.6-12.7v-7.1c0-0.6-0.5-1-1-1s-1,0.5-1,1v7.2c-5.5,3.7-6.6,5.8-6.6,12.6c0,0,0,0,0,0v7.3h-4.3v-6
		c0.1-0.1,0.2-0.1,0.2-0.2c1.8-2.8,3.1-5.7,4.2-8.8c0.1-0.1,0.1-0.2,0.1-0.3c0.5-1.6,0.9-3.3,1.3-4.9c0.1-0.2,0.2-0.3,0.2-0.5
		c0-0.1,0-0.1,0-0.2c0.4-2.2,0.6-4.5,0.6-6.7c0-19.8-12.7-29-22.8-36.4c-0.6-0.4-1.2-0.9-1.8-1.3c-0.1-0.1-0.3-0.2-0.4-0.3
		c-4.8-3.5-8.8-6.9-10.5-11.1c0.9-0.6,1.5-1.6,1.5-2.8c0-1.3-0.7-2.4-1.8-3c0.6-0.5,0.9-1.1,0.9-1.9c0-1-0.6-1.8-1.4-2.2V57.8
		c0-0.6-0.5-1-1-1c-0.6,0-1,0.5-1,1v13.8c-0.8,0.4-1.4,1.2-1.4,2.2c0,0.8,0.4,1.5,0.9,1.9c-1,0.6-1.8,1.7-1.8,3
		c0,1.1,0.6,2.2,1.5,2.8c-0.6,1.4-1.5,2.8-2.6,4.1c-0.1,0.1-0.1,0.1-0.2,0.2c-2.5,2.9-6.1,5.4-10,8.2c-10.3,7.4-23.2,16.6-23.2,36.6
		c0,4.2,0.7,8.4,2,12.3c0,0.1,0.1,0.2,0.1,0.3c1,3.1,2.4,6,4.2,8.8c0.1,0.1,0.2,0.2,0.3,0.3v5.9h-4.3v-7.3c0,0,0,0,0,0
		c0-6.8-1-8.9-6.6-12.6v-7.2c0-0.6-0.5-1-1-1c-0.6,0-1,0.5-1,1v7.1c-5.5,3.6-6.6,5.8-6.6,12.7c0,0,0,0,0,0v7.3h-4.3v-7.6
		c0-0.6-0.5-1-1-1c-0.6,0-1,0.5-1,1v7.6H47.2v-7.6c0-0.6-0.5-1-1-1c-0.6,0-1,0.5-1,1v8.6v60.4h-7.4v-25.7v-26.8v-25.7h0.4
		c0.6,0,1-0.5,1-1v-7c0-3.8-0.6-5.1-3.6-7.1v-6.5c0-0.6-0.5-1-1-1s-1,0.5-1,1v6.5c-2.9,2-3.5,3.3-3.5,7.1v7c0,0.6,0.5,1,1,1h0.4
		v25.7v26.8v25.7h-6.6H22v-30.4v-31.5v-30.4h0.6c0.6,0,1-0.5,1-1v-8.2c0-4.4-0.7-5.8-4.1-8.2v-8.4c0-0.6-0.5-1-1-1c-0.6,0-1,0.5-1,1
		v8.3c-3.5,2.3-4.2,3.8-4.2,8.2v8.2c0,0.6,0.5,1,1,1h0.6v30.4v31.5v30.4h-2.8c-0.6,0-1,0.5-1,1v14.5H7c-0.6,0-1,0.5-1,1s0.5,1,1,1
		h5.1h12.7h3.9h3.9h3.9h3.9h3.9h3.9h3.9H56h3.9h3.9h3.9h3.9h3.9h3.9h3.9h3.9H91h3.9h3.9h3.9h3.9h3.9h3.9h3.9h3.9h3.9h3.9h3.9h3.9
		h3.9h3.9h3.9h3.9h3.9h3.9h3.9h3.9h3.9h3.9h3.9h3.9h3.9h3.9h3.9h3.9h3.9h3.9h3.9h3.9h3.9h3.9h3.9h3.9h12.7h5.1c0.6,0,1-0.5,1-1
		S249.6,235.2,249,235.2z M236,158.8h3v29.4h-3V158.8z M234.4,125.3v-6.2h6.3v6.2h-0.6H235H234.4z M237.5,111.6
		c2.6,1.7,3.1,2.6,3.2,5.4h-6.3C234.5,114.2,235.1,113.3,237.5,111.6z M239.1,127.3v29.4h-3v-29.4H239.1z M236,190.2h3v29.4h-3
		V190.2z M230.2,224.6c-0.3-0.1-0.6-0.2-0.9-0.2c-0.7,0-1.4,0.3-1.9,0.8c-0.5-0.5-1.2-0.8-1.9-0.8c-0.7,0-1.4,0.3-1.9,0.8
		c-0.5-0.5-1.2-0.8-1.9-0.8c-0.7,0-1.4,0.3-1.9,0.8c-0.5-0.5-1.2-0.8-1.9-0.8c-0.7,0-1.4,0.3-1.9,0.8c-0.5-0.5-1.2-0.8-2-0.8
		c-0.7,0-1.4,0.3-1.9,0.8c-0.5-0.5-1.2-0.8-1.9-0.8c-0.7,0-1.4,0.3-1.9,0.8c-0.5-0.5-1.2-0.8-1.9-0.8c-0.7,0-1.4,0.3-1.9,0.8
		c-0.5-0.5-1.2-0.8-1.9-0.8c-0.7,0-1.4,0.3-1.9,0.8c-0.5-0.5-1.2-0.8-1.9-0.8c-0.7,0-1.4,0.3-1.9,0.8c-0.5-0.5-1.2-0.8-1.9-0.8
		c-0.7,0-1.4,0.3-1.9,0.8c-0.5-0.5-1.2-0.8-1.9-0.8c-0.7,0-1.4,0.3-1.9,0.8c-0.5-0.5-1.2-0.8-1.9-0.8c-0.8,0-1.5,0.3-2,0.8
		c-0.5-0.5-1.2-0.8-1.9-0.8c-0.7,0-1.4,0.3-1.9,0.8c-0.5-0.5-1.2-0.8-1.9-0.8c-0.7,0-1.4,0.3-1.9,0.8c-0.5-0.5-1.2-0.8-1.9-0.8
		c-0.7,0-1.4,0.3-1.9,0.8c-0.5-0.5-1.2-0.8-1.9-0.8c-0.7,0-1.4,0.3-1.9,0.8c-0.5-0.5-1.2-0.8-1.9-0.8c-0.7,0-1.4,0.3-1.9,0.8
		c-0.5-0.5-1.2-0.8-1.9-0.8c-0.7,0-1.4,0.3-1.9,0.8c-0.5-0.5-1.2-0.8-1.9-0.8c-0.7,0-1.4,0.3-1.9,0.8c-0.5-0.5-1.2-0.8-2-0.8
		c-0.7,0-1.4,0.3-1.9,0.8c-0.5-0.5-1.2-0.8-1.9-0.8c-0.7,0-1.4,0.3-1.9,0.8c-0.5-0.5-1.2-0.8-1.9-0.8s-1.4,0.3-1.9,0.8
		c-0.5-0.5-1.2-0.8-1.9-0.8c-0.7,0-1.4,0.3-1.9,0.8c-0.5-0.5-1.2-0.8-1.9-0.8c-0.7,0-1.4,0.3-1.9,0.8c-0.5-0.5-1.2-0.8-1.9-0.8
		c-0.7,0-1.4,0.3-1.9,0.8c-0.5-0.5-1.2-0.8-1.9-0.8c-0.7,0-1.4,0.3-1.9,0.8c-0.5-0.5-1.2-0.8-1.9-0.8c-0.8,0-1.5,0.3-2,0.7
		c-0.5-0.5-1.2-0.7-2-0.7c-0.7,0-1.4,0.3-1.9,0.8c-0.5-0.5-1.2-0.8-1.9-0.8c-0.7,0-1.4,0.3-1.9,0.8c-0.5-0.5-1.2-0.8-1.9-0.8
		c-0.7,0-1.4,0.3-1.9,0.8c-0.5-0.5-1.2-0.8-1.9-0.8c-0.7,0-1.4,0.3-1.9,0.8c-0.5-0.5-1.2-0.8-1.9-0.8c-0.7,0-1.4,0.3-1.9,0.8
		c-0.5-0.5-1.2-0.8-1.9-0.8c-0.7,0-1.4,0.3-1.9,0.8c-0.5-0.5-1.2-0.8-1.9-0.8c-0.7,0-1.4,0.3-1.9,0.8c-0.5-0.5-1.2-0.8-2-0.8
		c-0.7,0-1.4,0.3-1.9,0.8c-0.5-0.5-1.2-0.8-1.9-0.8c-0.7,0-1.4,0.3-1.9,0.8c-0.5-0.5-1.2-0.8-1.9-0.8c-0.7,0-1.4,0.3-1.9,0.8
		c-0.5-0.5-1.2-0.8-1.9-0.8c-0.7,0-1.4,0.3-1.9,0.8c-0.5-0.5-1.2-0.8-1.9-0.8s-1.4,0.3-1.9,0.8c-0.5-0.5-1.2-0.8-1.9-0.8
		c-0.7,0-1.4,0.3-1.9,0.8c-0.5-0.5-1.2-0.8-1.9-0.8c-0.7,0-1.4,0.3-1.9,0.8c-0.5-0.5-1.2-0.8-1.9-0.8c-0.8,0-1.5,0.3-2,0.7
		c-0.5-0.5-1.2-0.7-2-0.7c-0.7,0-1.4,0.3-1.9,0.8c-0.5-0.5-1.2-0.8-1.9-0.8c-0.7,0-1.4,0.3-1.9,0.8c-0.5-0.5-1.2-0.8-1.9-0.8
		c-0.7,0-1.4,0.3-1.9,0.8c-0.5-0.5-1.2-0.8-1.9-0.8c-0.7,0-1.4,0.3-1.9,0.8c-0.5-0.5-1.2-0.8-1.9-0.8c-0.7,0-1.4,0.3-1.9,0.8
		c-0.5-0.5-1.2-0.8-1.9-0.8c-0.7,0-1.4,0.3-1.9,0.8c-0.5-0.5-1.2-0.8-1.9-0.8c-0.7,0-1.4,0.3-1.9,0.8c-0.5-0.5-1.2-0.8-1.9-0.8
		c-0.8,0-1.5,0.3-2,0.8c-0.5-0.5-1.2-0.8-1.9-0.8c-0.7,0-1.4,0.3-1.9,0.8c-0.5-0.5-1.2-0.8-1.9-0.8c-0.7,0-1.4,0.3-1.9,0.8
		c-0.5-0.5-1.2-0.8-1.9-0.8c-0.3,0-0.6,0.1-0.9,0.2v-2.9h6.6h4.3h182.6h4.3h6.6V224.6z M47.2,167H71v52.5h-4.3
		c-0.1-10.6-1.2-13.7-6.9-19.9c-0.4-0.4-1.1-0.4-1.5,0c-5.6,6.1-6.8,9.2-6.8,19.9h-4.3V167z M61.5,219.5h-4.7V212
		c0-1.3,1.1-2.4,2.3-2.4c1.3,0,2.4,1.1,2.4,2.4V219.5z M144,177.7c-1.9-4.6-5.6-7.9-12.2-12H144V177.7z M131.6,191.6h-7.3v-10.8
		c0-2.1,1.7-3.8,3.7-3.8c2,0,3.6,1.7,3.6,3.8V191.6z M128,175c-3.2,0-5.7,2.6-5.7,5.9v10.8h-10.2c0.1-14.1,2.4-17.7,16-25.7
		c13.4,7.8,15.7,11.5,15.9,25.7h-10.3v-10.8C133.7,177.6,131.1,175,128,175z M112.1,177.7v-12.1h12.3
		C117.7,169.8,114,173.1,112.1,177.7z M112.1,193.6h11.3h9.3H144v25.9h-10.3v-10.8c0-3.2-2.6-5.9-5.7-5.9c-3.2,0-5.7,2.6-5.7,5.9
		v10.8h-10.2V193.6z M199.2,219.5h-4.7V212c0-1.3,1.1-2.4,2.4-2.4c1.2,0,2.3,1.1,2.3,2.4V219.5z M173.3,219.5h-4.7V212
		c0-1.3,1.1-2.4,2.3-2.4c1.3,0,2.4,1.1,2.4,2.4V219.5z M175.4,219.5V212c0-2.5-2-4.5-4.4-4.5c-2.4,0-4.3,2-4.3,4.5v7.5h-1.2
		c0.1-9.6,0.9-12.4,5.6-17.6c4.6,5.2,5.5,8,5.6,17.6H175.4z M131.6,219.5h-7.3v-10.8c0-2.1,1.7-3.8,3.7-3.8c2,0,3.6,1.7,3.6,3.8
		V219.5z M87.3,219.5h-4.7V212c0-1.3,1.1-2.4,2.4-2.4c1.2,0,2.3,1.1,2.3,2.4V219.5z M89.4,219.5V212c0-2.5-2-4.5-4.3-4.5
		c-2.4,0-4.4,2-4.4,4.5v7.5h-1.2c0.1-9.7,0.9-12.5,5.6-17.6c4.7,5.2,5.6,8,5.6,17.6H89.4z M201.3,219.5V212c0-2.5-2-4.5-4.3-4.5
		c-2.4,0-4.4,2-4.4,4.5v7.5h-1.2c0.1-9.6,0.9-12.4,5.6-17.6c4.6,5.2,5.5,8,5.6,17.6H201.3z M197.7,199.7c-0.4-0.4-1.1-0.4-1.5,0
		c-5.7,6.1-6.8,9.3-6.9,19.9H185V167h23.8v52.5h-4.3C204.4,208.9,203.3,205.7,197.7,199.7z M182.9,219.5h-4.3
		c-0.1-10.6-1.2-13.8-6.8-19.9c-0.2-0.2-0.5-0.3-0.8-0.3s-0.6,0.1-0.8,0.3c-5.7,6.1-6.8,9.3-6.9,19.9h-4.3V167h23.8V219.5z
		 M157,159.2v60.3h-11v-54.9c0-0.6-0.5-1-1-1h-34c-0.6,0-1,0.5-1,1v54.9H99v-60.3v-6.7h58V159.2z M97,219.5h-4.3
		c-0.1-10.6-1.2-13.7-6.9-19.9c-0.4-0.4-1.1-0.4-1.5,0c-5.6,6.1-6.8,9.2-6.8,19.9h-4.3V167H97V219.5z M59.1,201.9
		c4.7,5.2,5.6,8,5.6,17.6h-1.2V212c0-2.5-2-4.5-4.4-4.5c-2.4,0-4.3,2-4.3,4.5v7.5h-1.2C53.6,209.8,54.4,207,59.1,201.9z
		 M220.3,168.2h2.3v24.7h-2.3V168.2z M218.9,139.4v-5h5v5h-0.4h-4.3H218.9z M221.3,128.1c0.1,0,0.1,0,0.2,0c0,0,0.1,0,0.1,0
		c1.9,1.2,2.3,2,2.4,4.2h-5C219,130.2,219.5,129.4,221.3,128.1z M222.6,141.4v24.7h-2.3v-24.7H222.6z M220.3,194.9h2.3v24.7h-2.3
		V194.9z M208.8,164.9H185v-4.7h23.8V164.9z M171,140c4.5,3,5.4,4.6,5.5,9.8h-11.2C165.5,144.6,166.4,143.1,171,140z M165.4,152
		h11.2v6.2h-2c-0.1-2.7-0.7-3.8-2.9-5.5c-0.4-0.3-0.9-0.3-1.3,0c-2.3,1.8-2.9,2.8-3,5.5h-2V152z M172.6,158.2h-3.1
		c0.1-1.8,0.4-2.4,1.6-3.4C172.2,155.8,172.5,156.5,172.6,158.2z M164.4,160.3h4h5.2h4h5.3v4.7h-23.8v-4.7H164.4z M163,136.5H93
		c-0.1-0.4-0.1-0.8-0.2-1.2h70.4C163.1,135.7,163.1,136.1,163,136.5z M93.4,138.5h69.3c-0.2,1.1-0.5,2.2-0.9,3.2H94.2
		C93.9,140.7,93.6,139.6,93.4,138.5z M129.7,85.3h-3c0.6-0.9,1.1-1.8,1.5-2.7C128.6,83.6,129.1,84.5,129.7,85.3z M129.3,78.1
		c0.1,0.2,0.1,0.4,0.1,0.6c0,0.1,0,0.2-0.1,0.3C129.4,78.7,129.3,78.4,129.3,78.1z M127.1,78.7c0-0.2,0.1-0.4,0.1-0.6v0.4
		c0,0.2,0,0.4-0.1,0.6C127.1,79,127.1,78.8,127.1,78.7z M125,87.4h6.3c1.6,1.8,3.5,3.4,5.6,5.1h-17.7
		C121.4,90.8,123.4,89.2,125,87.4z M114.9,95.7c0.5-0.4,1.1-0.8,1.6-1.1h23.3c0.6,0.4,1.2,0.9,1.8,1.3c10.3,7.5,22,16,22,34.8
		c0,0.9,0,1.7-0.1,2.6H92.6c-0.1-0.9-0.1-1.7-0.1-2.6C92.5,111.6,104.4,103.2,114.9,95.7z M94.9,143.8h66.2
		c-0.9,2.3-1.9,4.5-3.2,6.7H98.1C96.8,148.3,95.8,146.1,94.9,143.8z M97,164.9H73.1v-4.7h5.3h4h5.2h4H97V164.9z M83.4,158.2
		c0.1-1.7,0.4-2.4,1.6-3.4c1.1,1,1.5,1.6,1.5,3.4H83.4z M85,140c4.6,3.1,5.5,4.6,5.6,9.8H79.4C79.5,144.6,80.5,143,85,140z
		 M79.4,152h11.2v6.2h-2c-0.1-2.7-0.7-3.8-2.9-5.5c-0.4-0.3-0.9-0.3-1.3,0c-2.3,1.8-2.9,2.8-3,5.5h-2V152z M71,164.9H47.2v-4.7H71
		V164.9z M33.4,168.2h2.3v24.7h-2.3V168.2z M32,139.4v-5h5v5h-0.4h-4.3H32z M34.4,128.2c0,0,0.1,0,0.1,0c0,0,0.1,0,0.1,0
		c1.9,1.3,2.3,2,2.4,4.2h-5C32.1,130.2,32.6,129.4,34.4,128.2z M35.7,141.4v24.7h-2.3v-24.7H35.7z M33.4,194.9h2.3v24.7h-2.3V194.9z
		 M16.9,158.8h3v29.4h-3V158.8z M15.3,125.3v-6.2h6.3v6.2H21h-5.1H15.3z M18.4,111.6c2.6,1.7,3.1,2.6,3.2,5.4h-6.3
		C15.4,114.2,16,113.3,18.4,111.6z M20,127.3v29.4h-3v-29.4H20z M16.9,190.2h3v29.4h-3V190.2z M13.1,221.7h2.8H21h2.8v5.7v7.7H13.1
		V221.7z M25.8,227.4c0-0.5,0.4-1,0.9-1c0.5,0,0.9,0.4,0.9,1v7.7h-1.8V227.4z M29.7,227.4c0-0.5,0.4-1,0.9-1s0.9,0.4,0.9,1v7.7h-1.8
		V227.4z M33.6,227.4c0-0.5,0.4-1,0.9-1s0.9,0.4,0.9,1v7.7h-1.8V227.4z M37.5,227.4c0-0.6,0.4-1,1-1c0.5,0,0.9,0.4,0.9,1v7.7h-1.9
		V227.4z M41.4,227.4c0-0.5,0.4-1,0.9-1s0.9,0.4,0.9,1v7.7h-1.8V227.4z M45.3,227.4c0-0.5,0.4-1,0.9-1c0.5,0,0.9,0.4,0.9,1v7.7h-1.8
		V227.4z M49.2,227.4c0-0.5,0.4-1,0.9-1s0.9,0.4,0.9,1v7.7h-1.8V227.4z M53.1,227.4c0-0.5,0.4-1,0.9-1c0.5,0,0.9,0.4,0.9,1v7.7h-1.8
		V227.4z M57,227.4c0-0.5,0.4-1,0.9-1c0.5,0,0.9,0.4,0.9,1v7.7H57V227.4z M60.9,227.4c0-0.5,0.4-1,0.9-1s0.9,0.4,0.9,1v7.7h-1.8
		V227.4z M64.8,227.4c0-0.5,0.4-1,0.9-1c0.5,0,0.9,0.4,0.9,1v7.7h-1.8V227.4z M68.6,227.4c0-0.6,0.4-1,1-1c0.5,0,0.9,0.4,0.9,1v7.7
		h-1.9V227.4z M72.6,227.4c0-0.5,0.4-1,0.9-1c0.5,0,0.9,0.4,0.9,1v7.7h-1.8V227.4z M76.5,227.4c0-0.5,0.4-1,0.9-1
		c0.5,0,0.9,0.4,0.9,1v7.7h-1.8V227.4z M80.4,227.4c0-0.5,0.4-1,0.9-1s0.9,0.4,0.9,1v7.7h-1.8V227.4z M84.2,227.4c0-0.5,0.4-1,0.9-1
		c0.5,0,0.9,0.4,0.9,1v7.7h-1.8V227.4z M88.1,227.4c0-0.5,0.4-1,0.9-1s0.9,0.4,0.9,1v7.7h-1.8V227.4z M92,227.4c0-0.5,0.4-1,0.9-1
		c0.5,0,0.9,0.4,0.9,1v7.7H92V227.4z M95.9,227.4c0-0.5,0.4-1,0.9-1c0.6,0,1,0.4,1,1v7.7h-1.9V227.4z M99.9,227.4c0-0.5,0.4-1,0.9-1
		s0.9,0.4,0.9,1v7.7h-1.8V227.4z M103.7,227.4c0-0.5,0.4-1,0.9-1c0.5,0,0.9,0.4,0.9,1v7.7h-1.8V227.4z M107.6,227.4
		c0-0.5,0.4-1,0.9-1s0.9,0.4,0.9,1v7.7h-1.8V227.4z M111.5,227.4c0-0.5,0.4-1,0.9-1s0.9,0.4,0.9,1v7.7h-1.8V227.4z M115.4,227.4
		c0-0.5,0.4-1,0.9-1s0.9,0.4,0.9,1v7.7h-1.8V227.4z M119.3,227.4c0-0.5,0.4-1,0.9-1c0.5,0,0.9,0.4,0.9,1v7.7h-1.8V227.4z
		 M123.2,227.4c0-0.5,0.4-1,0.9-1c0.5,0,0.9,0.4,0.9,1v7.7h-1.8V227.4z M127.1,227.4c0-0.6,0.4-1,1-1c0.5,0,0.9,0.4,0.9,1v7.7h-1.9
		V227.4z M131,227.4c0-0.5,0.4-1,0.9-1s0.9,0.4,0.9,1v7.7H131V227.4z M134.9,227.4c0-0.5,0.4-1,0.9-1c0.5,0,0.9,0.4,0.9,1v7.7h-1.8
		V227.4z M138.8,227.4c0-0.5,0.4-1,0.9-1s0.9,0.4,0.9,1v7.7h-1.8V227.4z M142.7,227.4c0-0.5,0.4-1,0.9-1c0.5,0,0.9,0.4,0.9,1v7.7
		h-1.8V227.4z M146.5,227.4c0-0.5,0.4-1,0.9-1s0.9,0.4,0.9,1v7.7h-1.8V227.4z M150.4,227.4c0-0.5,0.4-1,0.9-1c0.5,0,0.9,0.4,0.9,1
		v7.7h-1.8V227.4z M154.3,227.4c0-0.5,0.4-1,0.9-1c0.6,0,1,0.4,1,1v7.7h-1.9V227.4z M158.3,227.4c0-0.5,0.4-1,0.9-1s0.9,0.4,0.9,1
		v7.7h-1.8V227.4z M162.1,227.4c0-0.5,0.4-1,0.9-1c0.5,0,0.9,0.4,0.9,1v7.7h-1.8V227.4z M166,227.4c0-0.5,0.4-1,0.9-1s0.9,0.4,0.9,1
		v7.7H166V227.4z M169.9,227.4c0-0.5,0.4-1,0.9-1c0.5,0,0.9,0.4,0.9,1v7.7h-1.8V227.4z M173.8,227.4c0-0.5,0.4-1,0.9-1
		s0.9,0.4,0.9,1v7.7h-1.8V227.4z M177.7,227.4c0-0.5,0.4-1,0.9-1s0.9,0.4,0.9,1v7.7h-1.8V227.4z M181.6,227.4c0-0.5,0.4-1,0.9-1
		c0.5,0,0.9,0.4,0.9,1v7.7h-1.8V227.4z M185.5,227.4c0-0.6,0.4-1,1-1c0.5,0,0.9,0.4,0.9,1v7.7h-1.9V227.4z M189.4,227.4
		c0-0.5,0.4-1,0.9-1c0.5,0,0.9,0.4,0.9,1v7.7h-1.8V227.4z M193.3,227.4c0-0.5,0.4-1,0.9-1s0.9,0.4,0.9,1v7.7h-1.8V227.4z
		 M197.2,227.4c0-0.5,0.4-1,0.9-1s0.9,0.4,0.9,1v7.7h-1.8V227.4z M201.1,227.4c0-0.5,0.4-1,0.9-1c0.5,0,0.9,0.4,0.9,1v7.7h-1.8
		V227.4z M205,227.4c0-0.5,0.4-1,0.9-1s0.9,0.4,0.9,1v7.7H205V227.4z M208.8,227.4c0-0.5,0.4-1,0.9-1c0.5,0,0.9,0.4,0.9,1v7.7h-1.8
		V227.4z M212.7,227.4c0-0.5,0.4-1,0.9-1c0.6,0,1,0.4,1,1v7.7h-1.9V227.4z M216.7,227.4c0-0.5,0.4-1,0.9-1c0.5,0,0.9,0.4,0.9,1v7.7
		h-1.8V227.4z M220.6,227.4c0-0.5,0.4-1,0.9-1c0.5,0,0.9,0.4,0.9,1v7.7h-1.8V227.4z M224.4,227.4c0-0.5,0.4-1,0.9-1s0.9,0.4,0.9,1
		v7.7h-1.8V227.4z M228.3,227.4c0-0.5,0.4-1,0.9-1c0.5,0,0.9,0.4,0.9,1v7.7h-1.8V227.4z M232.2,235.2v-7.7v-5.7h2.8h5.1h2.8v13.5
		H232.2z"></path>
</svg>
